<svg xmlns="http://www.w3.org/2000/svg" viewBox="0 0 600 800">
<defs>
  <clipPath id="gc"><circle cx="300" cy="445" r="210"/></clipPath>
  <radialGradient id="gb" cx="38%" cy="32%" r="70%">
    <stop offset="0%" stop-color="#16182a"/>
    <stop offset="100%" stop-color="#08080c"/>
  </radialGradient>
  <radialGradient id="atm" cx="50%" cy="50%" r="50%">
    <stop offset="85%" stop-color="transparent"/>
    <stop offset="100%" stop-color="rgba(21,27,181,0.18)"/>
  </radialGradient>
  <filter id="glow" x="-50%" y="-50%" width="200%" height="200%">
    <feGaussianBlur stdDeviation="4" result="b"/>
    <feMerge><feMergeNode in="b"/><feMergeNode in="SourceGraphic"/></feMerge>
  </filter>
  <filter id="sglow" x="-100%" y="-100%" width="300%" height="300%">
    <feGaussianBlur stdDeviation="2" result="b"/>
    <feMerge><feMergeNode in="b"/><feMergeNode in="SourceGraphic"/></feMerge>
  </filter>
</defs>

<!-- Background -->
<rect width="600" height="800" fill="#0E0E10"/>

<!-- Corner measurement marks (top-left) -->
<line x1="0" y1="28" x2="28" y2="28" stroke="rgba(236,230,218,0.12)" stroke-width="0.5"/>
<line x1="0" y1="46" x2="14" y2="46" stroke="rgba(236,230,218,0.12)" stroke-width="0.5"/>
<line x1="0" y1="64" x2="14" y2="64" stroke="rgba(236,230,218,0.12)" stroke-width="0.5"/>
<line x1="0" y1="82" x2="28" y2="82" stroke="rgba(236,230,218,0.12)" stroke-width="0.5"/>
<line x1="0" y1="100" x2="14" y2="100" stroke="rgba(236,230,218,0.12)" stroke-width="0.5"/>
<line x1="0" y1="118" x2="14" y2="118" stroke="rgba(236,230,218,0.12)" stroke-width="0.5"/>
<line x1="0" y1="136" x2="28" y2="136" stroke="rgba(236,230,218,0.12)" stroke-width="0.5"/>
<line x1="0" y1="154" x2="14" y2="154" stroke="rgba(236,230,218,0.12)" stroke-width="0.5"/>
<line x1="0" y1="172" x2="14" y2="172" stroke="rgba(236,230,218,0.12)" stroke-width="0.5"/>
<line x1="28" y1="0" x2="28" y2="28" stroke="rgba(236,230,218,0.12)" stroke-width="0.5"/>
<line x1="46" y1="0" x2="46" y2="14" stroke="rgba(236,230,218,0.12)" stroke-width="0.5"/>
<line x1="64" y1="0" x2="64" y2="14" stroke="rgba(236,230,218,0.12)" stroke-width="0.5"/>
<line x1="82" y1="0" x2="82" y2="28" stroke="rgba(236,230,218,0.12)" stroke-width="0.5"/>
<line x1="100" y1="0" x2="100" y2="14" stroke="rgba(236,230,218,0.12)" stroke-width="0.5"/>
<line x1="600" y1="772" x2="572" y2="772" stroke="rgba(236,230,218,0.08)" stroke-width="0.5"/>
<line x1="600" y1="754" x2="586" y2="754" stroke="rgba(236,230,218,0.08)" stroke-width="0.5"/>
<line x1="600" y1="736" x2="586" y2="736" stroke="rgba(236,230,218,0.08)" stroke-width="0.5"/>
<line x1="600" y1="718" x2="572" y2="718" stroke="rgba(236,230,218,0.08)" stroke-width="0.5"/>
<line x1="600" y1="700" x2="586" y2="700" stroke="rgba(236,230,218,0.08)" stroke-width="0.5"/>
<line x1="600" y1="682" x2="586" y2="682" stroke="rgba(236,230,218,0.08)" stroke-width="0.5"/>
<line x1="600" y1="664" x2="572" y2="664" stroke="rgba(236,230,218,0.08)" stroke-width="0.5"/>
<line x1="600" y1="646" x2="586" y2="646" stroke="rgba(236,230,218,0.08)" stroke-width="0.5"/>
<line x1="600" y1="628" x2="586" y2="628" stroke="rgba(236,230,218,0.08)" stroke-width="0.5"/>

<!-- Globe base -->
<circle cx="300" cy="445" r="222" fill="rgba(21,27,181,0.05)"/>
<circle cx="300" cy="445" r="215" fill="rgba(21,27,181,0.07)"/>
<circle cx="300" cy="445" r="210" fill="url(#gb)"/>

<!-- Grid lines -->
<path d="M 353.8,242.0 L 348.6,240.9 L 343.4,240.2 L 338.1,239.7 L 332.8,239.5 L 327.4,239.7 L 322.0,240.2 L 316.5,241.0 L 311.0,242.1 L 305.5,243.5 L 300.0,245.3" stroke="rgba(236,230,218,0.07)" stroke-width="0.5" fill="none" clip-path="url(#gc)"/>
<path d="M 324.3,236.5 L 321.4,236.4 L 318.4,236.8 L 315.3,237.4 L 312.3,238.3 L 309.2,239.6 L 306.2,241.2 L 303.1,243.1 L 300.0,245.3" stroke="rgba(236,230,218,0.07)" stroke-width="0.5" fill="none" clip-path="url(#gc)"/>
<path d="M 302.3,235.0 L 302.0,235.2 L 301.7,235.7 L 301.4,236.5 L 301.1,237.6 L 300.9,239.0 L 300.6,240.8 L 300.3,242.9 L 300.0,245.3" stroke="rgba(236,230,218,0.07)" stroke-width="0.5" fill="none" clip-path="url(#gc)"/>
<path d="M 279.9,236.0 L 282.4,236.0 L 284.9,236.4 L 287.3,237.1 L 289.8,238.1 L 292.4,239.4 L 294.9,241.1 L 297.5,243.0 L 300.0,245.3" stroke="rgba(236,230,218,0.07)" stroke-width="0.5" fill="none" clip-path="url(#gc)"/>
<path d="M 255.3,239.9 L 260.0,239.3 L 264.9,238.9 L 269.8,238.9 L 274.8,239.1 L 279.8,239.7 L 284.8,240.7 L 289.9,241.9 L 294.9,243.4 L 300.0,245.3" stroke="rgba(236,230,218,0.07)" stroke-width="0.5" fill="none" clip-path="url(#gc)"/>
<path d="M 206.9,256.7 L 213.0,253.9 L 219.1,251.4 L 225.4,249.2 L 231.8,247.3 L 238.4,245.7 L 245.0,244.4 L 251.7,243.4 L 258.4,242.8 L 265.3,242.4 L 272.1,242.4 L 279.1,242.6 L 286.0,243.2 L 293.0,244.1 L 300.0,245.3" stroke="rgba(236,230,218,0.07)" stroke-width="0.5" fill="none" clip-path="url(#gc)"/>
<path d="M 129.2,322.8 L 133.8,316.7 L 138.7,310.8 L 143.8,305.0 L 149.2,299.5 L 154.8,294.2 L 160.6,289.2 L 166.6,284.4 L 172.8,279.8 L 179.3,275.5 L 185.9,271.4 L 192.7,267.7 L 199.6,264.2 L 206.7,260.9 L 214.0,258.0 L 221.4,255.3 L 228.9,253.0 L 236.5,250.9 L 244.2,249.1 L 252.0,247.6 L 259.9,246.5 L 267.9,245.6 L 275.9,245.1 L 283.9,244.8 L 291.9,244.9 L 300.0,245.3" stroke="rgba(236,230,218,0.07)" stroke-width="0.5" fill="none" clip-path="url(#gc)"/>
<path d="M 107.9,529.8 L 104.9,522.6 L 102.2,515.3 L 99.9,507.9 L 97.8,500.4 L 96.0,492.8 L 94.6,485.2 L 93.5,477.4 L 92.7,469.7 L 92.2,461.9 L 92.0,454.0 L 92.2,446.2 L 92.7,438.3 L 93.5,430.5 L 94.6,422.7 L 96.0,414.9 L 97.8,407.2 L 99.9,399.5 L 102.2,391.9 L 104.9,384.3 L 107.9,376.9 L 111.1,369.6 L 114.7,362.4 L 118.6,355.3 L 122.7,348.3 L 127.1,341.5 L 131.8,334.9 L 136.7,328.4 L 141.9,322.2 L 147.3,316.1 L 153.0,310.2 L 158.8,304.5 L 164.9,299.0 L 171.3,293.7 L 177.8,288.7 L 184.5,284.0 L 191.3,279.4 L 198.4,275.2 L 205.6,271.1 L 212.9,267.4 L 220.4,263.9 L 228.0,260.7 L 235.7,257.8 L 243.6,255.2 L 251.5,252.9 L 259.4,250.9 L 267.5,249.1 L 275.6,247.7 L 283.7,246.6 L 291.8,245.8 L 300.0,245.3" stroke="rgba(236,230,218,0.07)" stroke-width="0.5" fill="none" clip-path="url(#gc)"/>
<path d="M 191.0,624.5 L 185.2,620.7 L 179.6,616.7 L 174.1,612.3 L 168.9,607.8 L 163.8,602.9 L 159.0,597.9 L 154.4,592.6 L 150.0,587.0 L 145.8,581.3 L 141.9,575.3 L 138.2,569.2 L 134.8,562.8 L 131.6,556.3 L 128.7,549.6 L 126.0,542.7 L 123.7,535.7 L 121.5,528.5 L 119.7,521.2 L 118.1,513.8 L 116.9,506.3 L 115.9,498.7 L 115.2,491.0 L 114.7,483.3 L 114.6,475.5 L 114.7,467.6 L 115.2,459.7 L 115.9,451.8 L 116.9,443.8 L 118.1,435.9 L 119.7,428.0 L 121.5,420.1 L 123.7,412.3 L 126.0,404.5 L 128.7,396.7 L 131.6,389.1 L 134.8,381.5 L 138.2,374.0 L 141.9,366.6 L 145.8,359.4 L 150.0,352.3 L 154.4,345.3 L 159.0,338.5 L 163.8,331.8 L 168.9,325.3 L 174.1,319.0 L 179.6,312.9 L 185.2,307.0 L 191.0,301.3 L 197.0,295.9 L 203.1,290.6 L 209.4,285.6 L 215.8,280.9 L 222.4,276.4 L 229.0,272.1 L 235.8,268.2 L 242.7,264.5 L 249.7,261.0 L 256.7,257.9 L 263.8,255.1 L 271.0,252.5 L 278.2,250.2 L 285.5,248.3 L 292.7,246.6 L 300.0,245.3" stroke="rgba(236,230,218,0.07)" stroke-width="0.5" fill="none" clip-path="url(#gc)"/>
<path d="M 241.2,646.6 L 236.2,644.8 L 231.3,642.8 L 226.6,640.5 L 221.9,637.9 L 217.4,634.9 L 213.0,631.7 L 208.7,628.2 L 204.6,624.4 L 200.6,620.3 L 196.8,616.0 L 193.1,611.4 L 189.6,606.5 L 186.3,601.4 L 183.2,596.1 L 180.2,590.5 L 177.4,584.7 L 174.8,578.6 L 172.4,572.4 L 170.2,566.0 L 168.2,559.4 L 166.4,552.6 L 164.8,545.6 L 163.4,538.5 L 162.2,531.3 L 161.2,523.9 L 160.5,516.4 L 159.9,508.7 L 159.6,501.0 L 159.5,493.2 L 159.6,485.3 L 159.9,477.4 L 160.5,469.4 L 161.2,461.4 L 162.2,453.3 L 163.4,445.3 L 164.8,437.2 L 166.4,429.1 L 168.2,421.1 L 170.2,413.1 L 172.4,405.2 L 174.8,397.3 L 177.4,389.5 L 180.2,381.8 L 183.2,374.1 L 186.3,366.6 L 189.6,359.2 L 193.1,352.0 L 196.8,344.8 L 200.6,337.9 L 204.6,331.1 L 208.7,324.5 L 213.0,318.0 L 217.4,311.8 L 221.9,305.7 L 226.6,299.9 L 231.3,294.3 L 236.2,288.9 L 241.2,283.8 L 246.2,278.9 L 251.4,274.3 L 256.6,270.0 L 261.9,265.9 L 267.2,262.1 L 272.6,258.5 L 278.0,255.3 L 283.5,252.3 L 289.0,249.7 L 294.5,247.3 L 300.0,245.3" stroke="rgba(236,230,218,0.07)" stroke-width="0.5" fill="none" clip-path="url(#gc)"/>
<path d="M 272.8,653.2 L 269.9,652.5 L 267.1,651.6 L 264.3,650.3 L 261.6,648.7 L 258.9,646.7 L 256.3,644.5 L 253.8,641.9 L 251.3,639.1 L 248.9,635.9 L 246.6,632.5 L 244.4,628.8 L 242.2,624.8 L 240.2,620.5 L 238.2,615.9 L 236.4,611.1 L 234.6,606.0 L 232.9,600.7 L 231.4,595.1 L 229.9,589.3 L 228.6,583.3 L 227.3,577.0 L 226.2,570.6 L 225.2,563.9 L 224.3,557.1 L 223.5,550.1 L 222.8,543.0 L 222.3,535.7 L 221.9,528.2 L 221.6,520.7 L 221.4,513.0 L 221.3,505.2 L 221.4,497.3 L 221.6,489.3 L 221.9,481.3 L 222.3,473.2 L 222.8,465.0 L 223.5,456.9 L 224.3,448.7 L 225.2,440.5 L 226.2,432.3 L 227.3,424.2 L 228.6,416.0 L 229.9,407.9 L 231.4,399.9 L 232.9,391.9 L 234.6,384.1 L 236.4,376.3 L 238.2,368.6 L 240.2,361.0 L 242.2,353.6 L 244.4,346.3 L 246.6,339.2 L 248.9,332.2 L 251.3,325.4 L 253.8,318.8 L 256.3,312.4 L 258.9,306.1 L 261.6,300.1 L 264.3,294.4 L 267.1,288.8 L 269.9,283.5 L 272.8,278.4 L 275.7,273.6 L 278.6,269.1 L 281.6,264.8 L 284.7,260.9 L 287.7,257.1 L 290.8,253.7 L 293.8,250.6 L 296.9,247.8 L 300.0,245.3" stroke="rgba(236,230,218,0.07)" stroke-width="0.5" fill="none" clip-path="url(#gc)"/>
<path d="M 297.5,654.8 L 297.2,654.3 L 296.9,653.5 L 296.7,652.4 L 296.4,650.9 L 296.2,649.2 L 295.9,647.1 L 295.7,644.7 L 295.5,642.0 L 295.2,639.0 L 295.0,635.7 L 294.8,632.1 L 294.6,628.2 L 294.4,624.0 L 294.2,619.6 L 294.1,614.9 L 293.9,609.9 L 293.8,604.7 L 293.6,599.2 L 293.5,593.5 L 293.3,587.5 L 293.2,581.3 L 293.1,575.0 L 293.0,568.4 L 292.9,561.6 L 292.9,554.7 L 292.8,547.6 L 292.8,540.3 L 292.7,532.9 L 292.7,525.3 L 292.7,517.6 L 292.7,509.9 L 292.7,502.0 L 292.7,494.0 L 292.7,485.9 L 292.8,477.8 L 292.8,469.6 L 292.9,461.4 L 292.9,453.2 L 293.0,445.0 L 293.1,436.7 L 293.2,428.5 L 293.3,420.3 L 293.5,412.1 L 293.6,404.0 L 293.8,395.9 L 293.9,388.0 L 294.1,380.1 L 294.2,372.3 L 294.4,364.6 L 294.6,357.1 L 294.8,349.6 L 295.0,342.4 L 295.2,335.2 L 295.5,328.3 L 295.7,321.5 L 295.9,315.0 L 296.2,308.6 L 296.4,302.4 L 296.7,296.5 L 296.9,290.8 L 297.2,285.3 L 297.5,280.1 L 297.7,275.1 L 298.0,270.4 L 298.3,265.9 L 298.6,261.8 L 298.9,257.9 L 299.1,254.3 L 299.4,251.0 L 299.7,248.0 L 300.0,245.3" stroke="rgba(236,230,218,0.07)" stroke-width="0.5" fill="none" clip-path="url(#gc)"/>
<path d="M 322.5,653.7 L 324.8,653.1 L 327.2,652.2 L 329.5,651.0 L 331.7,649.4 L 333.9,647.5 L 336.1,645.4 L 338.1,642.9 L 340.2,640.1 L 342.1,637.0 L 344.0,633.6 L 345.9,629.9 L 347.7,625.9 L 349.3,621.6 L 351.0,617.1 L 352.5,612.3 L 354.0,607.3 L 355.3,602.0 L 356.6,596.4 L 357.8,590.7 L 358.9,584.7 L 360.0,578.4 L 360.9,572.0 L 361.7,565.4 L 362.5,558.6 L 363.1,551.6 L 363.6,544.5 L 364.1,537.2 L 364.4,529.8 L 364.7,522.2 L 364.8,514.5 L 364.9,506.7 L 364.8,498.8 L 364.7,490.9 L 364.4,482.8 L 364.1,474.7 L 363.6,466.6 L 363.1,458.4 L 362.5,450.2 L 361.7,442.0 L 360.9,433.8 L 360.0,425.6 L 358.9,417.4 L 357.8,409.3 L 356.6,401.3 L 355.3,393.3 L 354.0,385.4 L 352.5,377.5 L 351.0,369.8 L 349.3,362.2 L 347.7,354.7 L 345.9,347.4 L 344.0,340.2 L 342.1,333.2 L 340.2,326.4 L 338.1,319.7 L 336.1,313.2 L 333.9,307.0 L 331.7,300.9 L 329.5,295.1 L 327.2,289.5 L 324.8,284.1 L 322.5,279.0 L 320.1,274.1 L 317.6,269.5 L 315.1,265.2 L 312.7,261.2 L 310.2,257.4 L 307.6,253.9 L 305.1,250.7 L 302.5,247.9 L 300.0,245.3" stroke="rgba(236,230,218,0.07)" stroke-width="0.5" fill="none" clip-path="url(#gc)"/>
<path d="M 349.5,649.1 L 354.1,647.8 L 358.7,646.2 L 363.2,644.2 L 367.6,642.0 L 371.8,639.5 L 376.0,636.6 L 380.0,633.5 L 384.0,630.1 L 387.8,626.4 L 391.4,622.4 L 394.9,618.1 L 398.3,613.6 L 401.5,608.8 L 404.6,603.8 L 407.5,598.5 L 410.2,593.0 L 412.8,587.2 L 415.2,581.2 L 417.4,575.1 L 419.4,568.7 L 421.3,562.1 L 423.0,555.4 L 424.4,548.4 L 425.7,541.3 L 426.8,534.1 L 427.7,526.8 L 428.4,519.3 L 428.9,511.6 L 429.2,503.9 L 429.3,496.1 L 429.2,488.3 L 428.9,480.3 L 428.4,472.3 L 427.7,464.3 L 426.8,456.2 L 425.7,448.1 L 424.4,440.0 L 423.0,431.9 L 421.3,423.8 L 419.4,415.8 L 417.4,407.8 L 415.2,399.9 L 412.8,392.0 L 410.2,384.2 L 407.5,376.6 L 404.6,369.0 L 401.5,361.5 L 398.3,354.2 L 394.9,347.0 L 391.4,339.9 L 387.8,333.1 L 384.0,326.3 L 380.0,319.8 L 376.0,313.5 L 371.8,307.3 L 367.6,301.4 L 363.2,295.7 L 358.7,290.3 L 354.1,285.0 L 349.5,280.1 L 344.7,275.3 L 340.0,270.9 L 335.1,266.7 L 330.2,262.7 L 325.2,259.1 L 320.2,255.7 L 315.2,252.7 L 310.1,249.9 L 305.1,247.4 L 300.0,245.3" stroke="rgba(236,230,218,0.07)" stroke-width="0.5" fill="none" clip-path="url(#gc)"/>
<path d="M 398.9,630.2 L 404.7,626.8 L 410.3,623.1 L 415.7,619.2 L 420.9,615.0 L 425.9,610.5 L 430.8,605.8 L 435.4,600.9 L 439.9,595.7 L 444.1,590.2 L 448.1,584.6 L 451.8,578.7 L 455.4,572.6 L 458.7,566.3 L 461.7,559.8 L 464.5,553.2 L 467.1,546.4 L 469.4,539.4 L 471.4,532.3 L 473.2,525.1 L 474.7,517.7 L 475.9,510.2 L 476.9,502.6 L 477.5,495.0 L 478.0,487.2 L 478.1,479.4 L 478.0,471.5 L 477.5,463.6 L 476.9,455.7 L 475.9,447.7 L 474.7,439.8 L 473.2,431.8 L 471.4,423.9 L 469.4,416.0 L 467.1,408.1 L 464.5,400.3 L 461.7,392.6 L 458.7,385.0 L 455.4,377.4 L 451.8,370.0 L 448.1,362.6 L 444.1,355.4 L 439.9,348.4 L 435.4,341.4 L 430.8,334.7 L 425.9,328.1 L 420.9,321.7 L 415.7,315.5 L 410.3,309.4 L 404.7,303.6 L 398.9,298.0 L 393.1,292.7 L 387.0,287.5 L 380.9,282.7 L 374.6,278.0 L 368.2,273.6 L 361.6,269.5 L 355.0,265.7 L 348.3,262.1 L 341.6,258.8 L 334.7,255.8 L 327.9,253.1 L 320.9,250.7 L 314.0,248.6 L 307.0,246.8 L 300.0,245.3" stroke="rgba(236,230,218,0.07)" stroke-width="0.5" fill="none" clip-path="url(#gc)"/>
<path d="M 475.1,560.9 L 479.2,554.4 L 483.0,547.7 L 486.5,540.9 L 489.8,533.9 L 492.7,526.8 L 495.4,519.5 L 497.7,512.2 L 499.7,504.7 L 501.5,497.2 L 502.9,489.6 L 504.0,481.9 L 504.8,474.1 L 505.3,466.3 L 505.4,458.5 L 505.3,450.6 L 504.8,442.8 L 504.0,434.9 L 502.9,427.1 L 501.5,419.3 L 499.7,411.5 L 497.7,403.8 L 495.4,396.1 L 492.7,388.5 L 489.8,381.0 L 486.5,373.6 L 483.0,366.3 L 479.2,359.2 L 475.1,352.1 L 470.8,345.3 L 466.2,338.5 L 461.3,331.9 L 456.2,325.6 L 450.8,319.3 L 445.2,313.3 L 439.4,307.5 L 433.4,301.9 L 427.2,296.5 L 420.7,291.4 L 414.1,286.4 L 407.3,281.8 L 400.4,277.3 L 393.3,273.2 L 386.0,269.3 L 378.6,265.6 L 371.1,262.3 L 363.5,259.2 L 355.8,256.4 L 348.0,253.9 L 340.1,251.7 L 332.1,249.8 L 324.1,248.2 L 316.1,247.0 L 308.1,246.0 L 300.0,245.3" stroke="rgba(236,230,218,0.07)" stroke-width="0.5" fill="none" clip-path="url(#gc)"/>
<path d="M 488.9,353.2 L 485.3,346.3 L 481.4,339.5 L 477.3,332.9 L 472.9,326.5 L 468.2,320.3 L 463.3,314.3 L 458.1,308.4 L 452.7,302.8 L 447.0,297.4 L 441.2,292.2 L 435.1,287.3 L 428.7,282.6 L 422.2,278.1 L 415.5,273.9 L 408.7,270.0 L 401.6,266.3 L 394.4,262.9 L 387.1,259.8 L 379.6,257.0 L 372.0,254.5 L 364.3,252.3 L 356.4,250.3 L 348.5,248.7 L 340.6,247.4 L 332.5,246.3 L 324.4,245.6 L 316.3,245.2 L 308.2,245.1 L 300.0,245.3" stroke="rgba(236,230,218,0.07)" stroke-width="0.5" fill="none" clip-path="url(#gc)"/>
<path d="M 403.0,262.0 L 396.9,258.8 L 390.6,255.9 L 384.2,253.2 L 377.6,250.9 L 371.0,248.8 L 364.2,247.1 L 357.3,245.6 L 350.3,244.5 L 343.3,243.7 L 336.2,243.2 L 329.0,243.0 L 321.8,243.1 L 314.5,243.5 L 307.3,244.2 L 300.0,245.3" stroke="rgba(236,230,218,0.07)" stroke-width="0.5" fill="none" clip-path="url(#gc)"/>
<path d="M 353.8,242.0 L 348.6,240.9 L 343.4,240.2 L 338.1,239.7 L 332.8,239.5 L 327.4,239.7 L 322.0,240.2 L 316.5,241.0 L 311.0,242.1 L 305.5,243.5 L 300.0,245.3" stroke="rgba(236,230,218,0.07)" stroke-width="0.5" fill="none" clip-path="url(#gc)"/>
<path d="M 215.1,637.0 L 217.3,637.9 L 219.6,638.8 L 222.0,639.7 L 224.5,640.5 L 227.1,641.3 L 229.7,642.1 L 232.5,642.8 L 235.4,643.5 L 238.3,644.2 L 241.3,644.9 L 244.4,645.5 L 247.5,646.1 L 250.7,646.6 L 254.0,647.1 L 257.3,647.6 L 260.7,648.0 L 264.1,648.5 L 267.6,648.8 L 271.1,649.2 L 274.6,649.4 L 278.2,649.7 L 281.8,649.9 L 285.4,650.1 L 289.0,650.2 L 292.7,650.3 L 296.3,650.4 L 300.0,650.4 L 303.7,650.4 L 307.3,650.3 L 311.0,650.2 L 314.6,650.1 L 318.2,649.9 L 321.8,649.7 L 325.4,649.4 L 328.9,649.2 L 332.4,648.8 L 335.9,648.5 L 339.3,648.0 L 342.7,647.6 L 346.0,647.1 L 349.3,646.6 L 352.5,646.1 L 355.6,645.5 L 358.7,644.9 L 361.7,644.2 L 364.6,643.5 L 367.5,642.8 L 370.3,642.1 L 372.9,641.3 L 375.5,640.5 L 378.0,639.7 L 380.4,638.8 L 382.7,637.9 L 384.9,637.0" stroke="rgba(236,230,218,0.07)" stroke-width="0.5" fill="none" clip-path="url(#gc)"/>
<path d="M 145.4,587.1 L 147.0,588.7 L 148.8,590.4 L 150.8,592.0 L 153.0,593.6 L 155.4,595.2 L 158.0,596.7 L 160.7,598.2 L 163.6,599.7 L 166.6,601.2 L 169.9,602.6 L 173.2,604.0 L 176.8,605.3 L 180.5,606.6 L 184.3,607.9 L 188.3,609.1 L 192.4,610.3 L 196.6,611.5 L 201.0,612.6 L 205.4,613.6 L 210.0,614.6 L 214.8,615.5 L 219.6,616.4 L 224.5,617.3 L 229.5,618.1 L 234.6,618.8 L 239.7,619.5 L 245.0,620.1 L 250.3,620.7 L 255.7,621.2 L 261.1,621.6 L 266.6,622.0 L 272.1,622.3 L 277.6,622.6 L 283.2,622.8 L 288.8,623.0 L 294.4,623.1 L 300.0,623.1 L 305.6,623.1 L 311.2,623.0 L 316.8,622.8 L 322.4,622.6 L 327.9,622.3 L 333.4,622.0 L 338.9,621.6 L 344.3,621.2 L 349.7,620.7 L 355.0,620.1 L 360.3,619.5 L 365.4,618.8 L 370.5,618.1 L 375.5,617.3 L 380.4,616.4 L 385.2,615.5 L 390.0,614.6 L 394.6,613.6 L 399.0,612.6 L 403.4,611.5 L 407.6,610.3 L 411.7,609.1 L 415.7,607.9 L 419.5,606.6 L 423.2,605.3 L 426.8,604.0 L 430.1,602.6 L 433.4,601.2 L 436.4,599.7 L 439.3,598.2 L 442.0,596.7 L 444.6,595.2 L 447.0,593.6 L 449.2,592.0 L 451.2,590.4 L 453.0,588.7 L 454.6,587.1" stroke="rgba(236,230,218,0.07)" stroke-width="0.5" fill="none" clip-path="url(#gc)"/>
<path d="M 104.6,521.8 L 105.7,523.9 L 107.0,526.0 L 108.5,528.1 L 110.3,530.1 L 112.3,532.2 L 114.6,534.2 L 117.0,536.2 L 119.7,538.1 L 122.6,540.0 L 125.8,541.9 L 129.1,543.8 L 132.7,545.6 L 136.4,547.4 L 140.4,549.2 L 144.5,550.9 L 148.8,552.5 L 153.4,554.1 L 158.0,555.7 L 162.9,557.2 L 168.0,558.6 L 173.2,560.0 L 178.5,561.4 L 184.0,562.6 L 189.7,563.9 L 195.4,565.0 L 201.3,566.1 L 207.4,567.2 L 213.5,568.1 L 219.7,569.0 L 226.1,569.8 L 232.5,570.6 L 239.0,571.3 L 245.6,571.9 L 252.3,572.5 L 259.0,573.0 L 265.7,573.4 L 272.5,573.7 L 279.4,574.0 L 286.2,574.1 L 293.1,574.3 L 300.0,574.3 L 306.9,574.3 L 313.8,574.1 L 320.6,574.0 L 327.5,573.7 L 334.3,573.4 L 341.0,573.0 L 347.7,572.5 L 354.4,571.9 L 361.0,571.3 L 367.5,570.6 L 373.9,569.8 L 380.3,569.0 L 386.5,568.1 L 392.6,567.2 L 398.7,566.1 L 404.6,565.0 L 410.3,563.9 L 416.0,562.6 L 421.5,561.4 L 426.8,560.0 L 432.0,558.6 L 437.1,557.2 L 442.0,555.7 L 446.6,554.1 L 451.2,552.5 L 455.5,550.9 L 459.6,549.2 L 463.6,547.4 L 467.3,545.6 L 470.9,543.8 L 474.2,541.9 L 477.4,540.0 L 480.3,538.1 L 483.0,536.2 L 485.4,534.2 L 487.7,532.2 L 489.7,530.1 L 491.5,528.1 L 493.0,526.0 L 494.3,523.9 L 495.4,521.8" stroke="rgba(236,230,218,0.07)" stroke-width="0.5" fill="none" clip-path="url(#gc)"/>
<path d="M 90.0,445.0 L 90.1,447.3 L 90.5,449.5 L 91.2,451.8 L 92.0,454.0 L 93.2,456.3 L 94.6,458.5 L 96.2,460.7 L 98.1,462.9 L 100.3,465.1 L 102.7,467.2 L 105.3,469.3 L 108.2,471.4 L 111.3,473.4 L 114.6,475.5 L 118.1,477.4 L 121.9,479.4 L 125.9,481.3 L 130.1,483.1 L 134.5,485.0 L 139.1,486.7 L 143.9,488.4 L 148.9,490.1 L 154.1,491.7 L 159.5,493.2 L 165.0,494.7 L 170.7,496.1 L 176.6,497.5 L 182.6,498.8 L 188.7,500.0 L 195.0,501.2 L 201.4,502.3 L 207.9,503.3 L 214.6,504.3 L 221.3,505.2 L 228.2,506.0 L 235.1,506.7 L 242.1,507.4 L 249.2,508.0 L 256.3,508.5 L 263.5,508.9 L 270.8,509.3 L 278.0,509.5 L 285.4,509.7 L 292.7,509.9 L 300.0,509.9 L 307.3,509.9 L 314.6,509.7 L 322.0,509.5 L 329.2,509.3 L 336.5,508.9 L 343.7,508.5 L 350.8,508.0 L 357.9,507.4 L 364.9,506.7 L 371.8,506.0 L 378.7,505.2 L 385.4,504.3 L 392.1,503.3 L 398.6,502.3 L 405.0,501.2 L 411.3,500.0 L 417.4,498.8 L 423.4,497.5 L 429.3,496.1 L 435.0,494.7 L 440.5,493.2 L 445.9,491.7 L 451.1,490.1 L 456.1,488.4 L 460.9,486.7 L 465.5,485.0 L 469.9,483.1 L 474.1,481.3 L 478.1,479.4 L 481.9,477.4 L 485.4,475.5 L 488.7,473.4 L 491.8,471.4 L 494.7,469.3 L 497.3,467.2 L 499.7,465.1 L 501.9,462.9 L 503.8,460.7 L 505.4,458.5 L 506.8,456.3 L 508.0,454.0 L 508.8,451.8 L 509.5,449.5 L 509.9,447.3 L 510.0,445.0" stroke="rgba(236,230,218,0.16)" stroke-width="0.6" fill="none" clip-path="url(#gc)"/>
<path d="M 103.7,370.3 L 103.1,372.4 L 102.8,374.6 L 102.7,376.7 L 102.8,378.8 L 103.1,380.9 L 103.7,383.1 L 104.6,385.2 L 105.7,387.3 L 107.0,389.4 L 108.5,391.4 L 110.3,393.5 L 112.3,395.5 L 114.6,397.5 L 117.0,399.5 L 119.7,401.5 L 122.6,403.4 L 125.8,405.3 L 129.1,407.2 L 132.7,409.0 L 136.4,410.8 L 140.4,412.5 L 144.5,414.2 L 148.8,415.9 L 153.4,417.5 L 158.0,419.1 L 162.9,420.6 L 168.0,422.0 L 173.2,423.4 L 178.5,424.7 L 184.0,426.0 L 189.7,427.2 L 195.4,428.4 L 201.3,429.5 L 207.4,430.5 L 213.5,431.5 L 219.7,432.4 L 226.1,433.2 L 232.5,434.0 L 239.0,434.7 L 245.6,435.3 L 252.3,435.9 L 259.0,436.3 L 265.7,436.7 L 272.5,437.1 L 279.4,437.3 L 286.2,437.5 L 293.1,437.6 L 300.0,437.7 L 306.9,437.6 L 313.8,437.5 L 320.6,437.3 L 327.5,437.1 L 334.3,436.7 L 341.0,436.3 L 347.7,435.9 L 354.4,435.3 L 361.0,434.7 L 367.5,434.0 L 373.9,433.2 L 380.3,432.4 L 386.5,431.5 L 392.6,430.5 L 398.7,429.5 L 404.6,428.4 L 410.3,427.2 L 416.0,426.0 L 421.5,424.7 L 426.8,423.4 L 432.0,422.0 L 437.1,420.6 L 442.0,419.1 L 446.6,417.5 L 451.2,415.9 L 455.5,414.2 L 459.6,412.5 L 463.6,410.8 L 467.3,409.0 L 470.9,407.2 L 474.2,405.3 L 477.4,403.4 L 480.3,401.5 L 483.0,399.5 L 485.4,397.5 L 487.7,395.5 L 489.7,393.5 L 491.5,391.4 L 493.0,389.4 L 494.3,387.3 L 495.4,385.2 L 496.3,383.1 L 496.9,380.9 L 497.2,378.8 L 497.3,376.7 L 497.2,374.6 L 496.9,372.4 L 496.3,370.3" stroke="rgba(236,230,218,0.07)" stroke-width="0.5" fill="none" clip-path="url(#gc)"/>
<path d="M 143.9,304.6 L 142.6,306.3 L 141.6,308.0 L 140.7,309.7 L 140.0,311.4 L 139.5,313.2 L 139.2,314.9 L 139.1,316.6 L 139.2,318.4 L 139.5,320.1 L 140.0,321.8 L 140.7,323.5 L 141.6,325.3 L 142.6,327.0 L 143.9,328.6 L 145.4,330.3 L 147.0,332.0 L 148.8,333.6 L 150.8,335.2 L 153.0,336.8 L 155.4,338.4 L 158.0,340.0 L 160.7,341.5 L 163.6,343.0 L 166.6,344.4 L 169.9,345.8 L 173.2,347.2 L 176.8,348.6 L 180.5,349.9 L 184.3,351.2 L 188.3,352.4 L 192.4,353.6 L 196.6,354.7 L 201.0,355.8 L 205.4,356.8 L 210.0,357.8 L 214.8,358.8 L 219.6,359.7 L 224.5,360.5 L 229.5,361.3 L 234.6,362.0 L 239.7,362.7 L 245.0,363.3 L 250.3,363.9 L 255.7,364.4 L 261.1,364.9 L 266.6,365.2 L 272.1,365.6 L 277.6,365.8 L 283.2,366.1 L 288.8,366.2 L 294.4,366.3 L 300.0,366.3 L 305.6,366.3 L 311.2,366.2 L 316.8,366.1 L 322.4,365.8 L 327.9,365.6 L 333.4,365.2 L 338.9,364.9 L 344.3,364.4 L 349.7,363.9 L 355.0,363.3 L 360.3,362.7 L 365.4,362.0 L 370.5,361.3 L 375.5,360.5 L 380.4,359.7 L 385.2,358.8 L 390.0,357.8 L 394.6,356.8 L 399.0,355.8 L 403.4,354.7 L 407.6,353.6 L 411.7,352.4 L 415.7,351.2 L 419.5,349.9 L 423.2,348.6 L 426.8,347.2 L 430.1,345.8 L 433.4,344.4 L 436.4,343.0 L 439.3,341.5 L 442.0,340.0 L 444.6,338.4 L 447.0,336.8 L 449.2,335.2 L 451.2,333.6 L 453.0,332.0 L 454.6,330.3 L 456.1,328.6 L 457.4,327.0 L 458.4,325.3 L 459.3,323.5 L 460.0,321.8 L 460.5,320.1 L 460.8,318.4 L 460.9,316.6 L 460.8,314.9 L 460.5,313.2 L 460.0,311.4 L 459.3,309.7 L 458.4,308.0 L 457.4,306.3 L 456.1,304.6" stroke="rgba(236,230,218,0.07)" stroke-width="0.5" fill="none" clip-path="url(#gc)"/>
<path d="M 213.0,253.9 L 211.0,254.8 L 209.1,255.8 L 207.3,256.8 L 205.6,257.8 L 204.1,258.8 L 202.6,259.9 L 201.3,260.9 L 200.1,262.0 L 199.1,263.1 L 198.1,264.2 L 197.3,265.3 L 196.6,266.4 L 196.0,267.5 L 195.6,268.6 L 195.3,269.8 L 195.1,270.9 L 195.0,272.0 L 195.1,273.2 L 195.3,274.3 L 195.6,275.4 L 196.0,276.6 L 196.6,277.7 L 197.3,278.8 L 198.1,279.9 L 199.1,281.0 L 200.1,282.1 L 201.3,283.1 L 202.6,284.2 L 204.1,285.2 L 205.6,286.3 L 207.3,287.3 L 209.1,288.3 L 211.0,289.2 L 213.0,290.2 L 215.1,291.1 L 217.3,292.0 L 219.6,292.9 L 222.0,293.7 L 224.5,294.6 L 227.1,295.4 L 229.7,296.1 L 232.5,296.9 L 235.4,297.6 L 238.3,298.3 L 241.3,298.9 L 244.4,299.6 L 247.5,300.1 L 250.7,300.7 L 254.0,301.2 L 257.3,301.7 L 260.7,302.1 L 264.1,302.5 L 267.6,302.9 L 271.1,303.2 L 274.6,303.5 L 278.2,303.8 L 281.8,304.0 L 285.4,304.2 L 289.0,304.3 L 292.7,304.4 L 296.3,304.5 L 300.0,304.5 L 303.7,304.5 L 307.3,304.4 L 311.0,304.3 L 314.6,304.2 L 318.2,304.0 L 321.8,303.8 L 325.4,303.5 L 328.9,303.2 L 332.4,302.9 L 335.9,302.5 L 339.3,302.1 L 342.7,301.7 L 346.0,301.2 L 349.3,300.7 L 352.5,300.1 L 355.6,299.6 L 358.7,298.9 L 361.7,298.3 L 364.6,297.6 L 367.5,296.9 L 370.3,296.1 L 372.9,295.4 L 375.5,294.6 L 378.0,293.7 L 380.4,292.9 L 382.7,292.0 L 384.9,291.1 L 387.0,290.2 L 389.0,289.2 L 390.9,288.3 L 392.7,287.3 L 394.4,286.3 L 395.9,285.2 L 397.4,284.2 L 398.7,283.1 L 399.9,282.1 L 400.9,281.0 L 401.9,279.9 L 402.7,278.8 L 403.4,277.7 L 404.0,276.6 L 404.4,275.4 L 404.7,274.3 L 404.9,273.2 L 405.0,272.0 L 404.9,270.9 L 404.7,269.8 L 404.4,268.6 L 404.0,267.5 L 403.4,266.4 L 402.7,265.3 L 401.9,264.2 L 400.9,263.1 L 399.9,262.0 L 398.7,260.9 L 397.4,259.9 L 395.9,258.8 L 394.4,257.8 L 392.7,256.8 L 390.9,255.8 L 389.0,254.8 L 387.0,253.9" stroke="rgba(236,230,218,0.07)" stroke-width="0.5" fill="none" clip-path="url(#gc)"/>
<path d="M 324.4,239.9 L 323.4,239.7 L 322.5,239.4 L 321.4,239.2 L 320.4,239.0 L 319.3,238.8 L 318.2,238.6 L 317.1,238.4 L 316.0,238.2 L 314.8,238.0 L 313.7,237.9 L 312.5,237.7 L 311.3,237.6 L 310.1,237.5 L 308.8,237.4 L 307.6,237.3 L 306.3,237.2 L 305.1,237.2 L 303.8,237.1 L 302.5,237.1 L 301.3,237.1 L 300.0,237.0 L 298.7,237.1 L 297.5,237.1 L 296.2,237.1 L 294.9,237.2 L 293.7,237.2 L 292.4,237.3 L 291.2,237.4 L 289.9,237.5 L 288.7,237.6 L 287.5,237.7 L 286.3,237.9 L 285.2,238.0 L 284.0,238.2 L 282.9,238.4 L 281.8,238.6 L 280.7,238.8 L 279.6,239.0 L 278.6,239.2 L 277.5,239.4 L 276.6,239.7 L 275.6,239.9 L 274.7,240.2 L 273.8,240.5 L 272.9,240.8 L 272.1,241.1 L 271.3,241.4 L 270.5,241.7 L 269.8,242.0 L 269.1,242.3 L 268.4,242.7 L 267.8,243.0 L 267.2,243.4 L 266.7,243.7 L 266.2,244.1 L 265.7,244.5 L 265.3,244.8 L 264.9,245.2 L 264.6,245.6 L 264.3,246.0 L 264.1,246.4 L 263.9,246.7 L 263.7,247.1 L 263.6,247.5 L 263.6,247.9 L 263.5,248.3 L 263.6,248.7 L 263.6,249.1 L 263.7,249.5 L 263.9,249.9 L 264.1,250.3 L 264.3,250.7 L 264.6,251.0 L 264.9,251.4 L 265.3,251.8 L 265.7,252.2 L 266.2,252.5 L 266.7,252.9 L 267.2,253.3 L 267.8,253.6 L 268.4,253.9 L 269.1,254.3 L 269.8,254.6 L 270.5,254.9 L 271.3,255.3 L 272.1,255.6 L 272.9,255.9 L 273.8,256.1 L 274.7,256.4 L 275.6,256.7 L 276.6,256.9 L 277.5,257.2 L 278.6,257.4 L 279.6,257.7 L 280.7,257.9 L 281.8,258.1 L 282.9,258.3 L 284.0,258.4 L 285.2,258.6 L 286.3,258.8 L 287.5,258.9 L 288.7,259.0 L 289.9,259.1 L 291.2,259.2 L 292.4,259.3 L 293.7,259.4 L 294.9,259.5 L 296.2,259.5 L 297.5,259.6 L 298.7,259.6 L 300.0,259.6 L 301.3,259.6 L 302.5,259.6 L 303.8,259.5 L 305.1,259.5 L 306.3,259.4 L 307.6,259.3 L 308.8,259.2 L 310.1,259.1 L 311.3,259.0 L 312.5,258.9 L 313.7,258.8 L 314.8,258.6 L 316.0,258.4 L 317.1,258.3 L 318.2,258.1 L 319.3,257.9 L 320.4,257.7 L 321.4,257.4 L 322.5,257.2 L 323.4,256.9 L 324.4,256.7 L 325.3,256.4 L 326.2,256.1 L 327.1,255.9 L 327.9,255.6 L 328.7,255.3 L 329.5,254.9 L 330.2,254.6 L 330.9,254.3 L 331.6,253.9 L 332.2,253.6 L 332.8,253.3 L 333.3,252.9 L 333.8,252.5 L 334.3,252.2 L 334.7,251.8 L 335.1,251.4 L 335.4,251.0 L 335.7,250.7 L 335.9,250.3 L 336.1,249.9 L 336.3,249.5 L 336.4,249.1 L 336.4,248.7 L 336.5,248.3 L 336.4,247.9 L 336.4,247.5 L 336.3,247.1 L 336.1,246.7 L 335.9,246.4 L 335.7,246.0 L 335.4,245.6 L 335.1,245.2 L 334.7,244.8 L 334.3,244.5 L 333.8,244.1 L 333.3,243.7 L 332.8,243.4 L 332.2,243.0 L 331.6,242.7 L 330.9,242.3 L 330.2,242.0 L 329.5,241.7 L 328.7,241.4 L 327.9,241.1 L 327.1,240.8 L 326.2,240.5 L 325.3,240.2 L 324.4,239.9" stroke="rgba(236,230,218,0.07)" stroke-width="0.5" fill="none" clip-path="url(#gc)"/>
<path d="M 176.6,358.8 L 211.0,369.1 L 211.6,382.6 L 230.1,394.1 L 243.5,424.1 L 283.0,430.1 L 307.2,466.9 L 333.6,467.9 L 300.0,502.9 L 292.7,525.0 L 295.3,546.8 L 270.6,591.5 L 254.6,609.7 L 230.7,606.3 L 220.6,592.0 L 199.1,557.6 L 172.9,518.1 L 154.4,474.7 L 181.1,483.6 L 167.7,474.4 L 124.6,427.9 L 141.4,391.1 L 156.9,379.8 L 174.8,363.5 L 176.6,358.8 Z" stroke="rgba(236,230,218,0.22)" stroke-width="0.8" fill="rgba(236,230,218,0.04)" clip-path="url(#gc)"/>
<path d="M 277.5,401.3 L 281.2,410.0 L 287.6,424.4 L 295.8,445.0 L 305.4,464.0 L 328.2,455.4 L 358.6,427.6 L 354.9,421.7 L 348.9,420.0 L 349.4,413.4 L 347.9,422.6 L 331.6,421.1 L 326.8,413.4 L 320.5,405.7 L 317.7,400.7 L 277.5,401.3 Z" stroke="rgba(236,230,218,0.22)" stroke-width="0.8" fill="rgba(236,230,218,0.04)" clip-path="url(#gc)"/>
<path d="M 174.7,363.1 L 211.1,368.8 L 224.4,369.3 L 235.9,362.2 L 247.5,370.5 L 264.5,360.7 L 265.7,361.8 L 261.6,361.8 L 260.9,358.0 L 264.4,353.3 L 277.9,350.8 L 271.9,343.9 L 288.8,343.1 L 274.9,343.8 L 298.7,355.9 L 311.4,369.6 L 282.9,378.1 L 258.9,378.5 L 247.1,372.2 L 243.0,371.8 L 239.8,367.9 L 239.0,363.3 L 240.1,356.6 L 231.4,344.5 L 229.4,344.8 L 233.1,348.8 L 233.9,351.6 L 237.8,355.6 L 232.7,351.4 L 230.8,341.7 L 230.9,339.0 L 224.4,334.8 L 220.1,333.0 L 215.9,321.3 L 207.8,318.4 L 198.5,325.2 L 181.9,338.0 L 183.3,337.8 L 174.7,363.1 Z" stroke="rgba(236,230,218,0.22)" stroke-width="0.8" fill="rgba(236,230,218,0.04)" clip-path="url(#gc)"/>
<path d="M 307.3,374.9 L 282.8,379.8 L 284.0,374.7 L 287.7,377.2 L 297.1,376.3 L 304.3,369.7 L 308.4,366.9 L 317.7,369.8 L 323.2,374.7 L 335.0,376.2 L 344.0,373.4 L 355.5,378.3 L 360.1,394.6 L 362.7,410.6 L 366.7,415.7 L 359.6,422.7 L 356.3,424.8 L 349.0,421.1 L 349.4,413.4 L 345.7,408.6 L 335.8,412.5 L 327.1,407.9 L 323.9,403.4 L 319.6,399.6 L 317.6,397.5 L 317.9,392.1 L 311.3,388.8 L 310.8,383.5 L 305.9,379.4 L 304.4,377.3 L 307.3,374.9 Z" stroke="rgba(236,230,218,0.22)" stroke-width="0.8" fill="rgba(236,230,218,0.04)" clip-path="url(#gc)"/>
<circle cx="300" cy="445" r="210" fill="url(#atm)"/>
<circle cx="300" cy="445" r="210" fill="none" stroke="rgba(236,230,218,0.28)" stroke-width="0.8"/>
<line x1="292.0" y1="421.3" x2="341.0" y2="420.0" stroke="rgba(21,27,181,0.35)" stroke-width="0.5" stroke-dasharray="2,4"/>
<line x1="292.0" y1="421.3" x2="307.2" y2="467.5" stroke="rgba(21,27,181,0.35)" stroke-width="0.5" stroke-dasharray="2,4"/>
<line x1="341.0" y1="420.0" x2="307.2" y2="467.5" stroke="rgba(21,27,181,0.35)" stroke-width="0.5" stroke-dasharray="2,4"/>
<circle cx="292.0" cy="421.3" r="12" fill="rgba(21,27,181,0.12)" stroke="rgba(21,27,181,0.5)" stroke-width="0.6"/>
<circle cx="292.0" cy="421.3" r="3" fill="#151BB5" filter="url(#sglow)"/>
<circle cx="292.0" cy="421.3" r="1.5" fill="#ECE6DA"/>
<circle cx="341.0" cy="420.0" r="9" fill="rgba(21,27,181,0.12)" stroke="rgba(21,27,181,0.5)" stroke-width="0.6"/>
<circle cx="341.0" cy="420.0" r="3" fill="#151BB5" filter="url(#sglow)"/>
<circle cx="341.0" cy="420.0" r="1.5" fill="#ECE6DA"/>
<circle cx="307.2" cy="467.5" r="9" fill="rgba(21,27,181,0.12)" stroke="rgba(21,27,181,0.5)" stroke-width="0.6"/>
<circle cx="307.2" cy="467.5" r="3" fill="#151BB5" filter="url(#sglow)"/>
<circle cx="307.2" cy="467.5" r="1.5" fill="#ECE6DA"/>
<line x1="292.0" y1="421.3" x2="279.4" y2="418.1" stroke="rgba(236,230,218,0.25)" stroke-width="0.5"/>
<text x="274.0" y="413.3" font-family="'Helvetica Neue',Helvetica,Arial,sans-serif" font-size="7.5" letter-spacing="0.16em" fill="rgba(236,230,218,0.6)" text-anchor="end">MADINAH</text>
<text x="274.0" y="423.3" font-family="'Helvetica Neue',Helvetica,Arial,sans-serif" font-size="6.5" letter-spacing="0.14em" fill="rgba(21,27,181,0.8)" text-anchor="end">HQ</text>
<line x1="341.0" y1="420.0" x2="353.6" y2="416.8" stroke="rgba(236,230,218,0.25)" stroke-width="0.5"/>
<text x="359.0" y="412.0" font-family="'Helvetica Neue',Helvetica,Arial,sans-serif" font-size="7.5" letter-spacing="0.16em" fill="rgba(236,230,218,0.6)" text-anchor="start">ABU DHABI</text>
<text x="359.0" y="422.0" font-family="'Helvetica Neue',Helvetica,Arial,sans-serif" font-size="6.5" letter-spacing="0.14em" fill="rgba(21,27,181,0.8)" text-anchor="start">OFFSHORE</text>
<line x1="307.2" y1="467.5" x2="319.8" y2="474.7" stroke="rgba(236,230,218,0.25)" stroke-width="0.5"/>
<text x="325.2" y="485.5" font-family="'Helvetica Neue',Helvetica,Arial,sans-serif" font-size="7.5" letter-spacing="0.16em" fill="rgba(236,230,218,0.6)" text-anchor="start">HORN OF AFRICA</text>
<text x="325.2" y="495.5" font-family="'Helvetica Neue',Helvetica,Arial,sans-serif" font-size="6.5" letter-spacing="0.14em" fill="rgba(21,27,181,0.8)" text-anchor="start">MARKET DEV</text>
<text x="32" y="28" font-family="'Helvetica Neue',Helvetica,Arial,sans-serif" font-size="8" letter-spacing="0.22em" fill="rgba(236,230,218,0.3)">STRATEGIC POSITIONING</text>
<line x1="32" y1="36" x2="568" y2="36" stroke="rgba(236,230,218,0.08)" stroke-width="0.4"/>
<line x1="32" y1="752" x2="568" y2="752" stroke="rgba(236,230,218,0.1)" stroke-width="0.5"/>
<text x="32" y="768" font-family="'Helvetica Neue',Helvetica,Arial,sans-serif" font-size="7.5" letter-spacing="0.2em" fill="rgba(236,230,218,0.28)">MP · MINORITY PARTNERS</text>
<text x="568" y="768" font-family="'Helvetica Neue',Helvetica,Arial,sans-serif" font-size="7.5" letter-spacing="0.14em" text-anchor="end" fill="rgba(236,230,218,0.2)">EST. MMXXVI</text>
<text x="32" y="782" font-family="'Helvetica Neue',Helvetica,Arial,sans-serif" font-size="7" letter-spacing="0.1em" fill="rgba(236,230,218,0.18)">24°28'N  39°22'E · 24°27'N  54°22'E · 11°50'N  44°00'E</text>
</svg>